<svg width="20" height="20" viewBox="0 0 20 20" xmlns="http://www.w3.org/2000/svg">
<path fill-rule="evenodd" clip-rule="evenodd" d="M15.8917 4.10835L14.7167 5.28335C15.9167 6.49169 16.6667 8.15835 16.6667 10C16.6667 13.6834 13.6833 16.6667 10 16.6667C6.31667 16.6667 3.33333 13.6834 3.33333 10C3.33333 6.60002 5.875 3.80002 9.16667 3.39169V5.07502C6.8 5.47502 5 7.52502 5 10C5 12.7584 7.24167 15 10 15C12.7583 15 15 12.7584 15 10C15 8.61669 14.4417 7.36669 13.5333 6.46669L12.3583 7.64169C12.9583 8.25002 13.3333 9.08335 13.3333 10C13.3333 11.8417 11.8417 13.3334 10 13.3334C8.15833 13.3334 6.66667 11.8417 6.66667 10C6.66667 8.45002 7.73333 7.15835 9.16667 6.78335V8.56669C8.66667 8.85835 8.33333 9.38335 8.33333 10C8.33333 10.9167 9.08333 11.6667 10 11.6667C10.9167 11.6667 11.6667 10.9167 11.6667 10C11.6667 9.38335 11.3333 8.85002 10.8333 8.56669V1.66669H10C5.4 1.66669 1.66667 5.40002 1.66667 10C1.66667 14.6 5.4 18.3334 10 18.3334C14.6 18.3334 18.3333 14.6 18.3333 10C18.3333 7.70002 17.4 5.61669 15.8917 4.10835V4.10835Z"/>
</svg>