<svg width="20" height="20" viewBox="0 0 20 20" xmlns="http://www.w3.org/2000/svg">
<mask id="mask0" mask-type="alpha" maskUnits="userSpaceOnUse" x="0" y="0" width="20" height="20">
<path fill-rule="evenodd" clip-rule="evenodd" d="M20 20H0V0H20V20V20Z" fill="white"/>
</mask>
<g mask="url(#mask0)">
<path fill-rule="evenodd" clip-rule="evenodd" d="M7.08333 12.0833L3.33333 15.8333L4.58333 17.0833L7.5 14.1666H9.16667L7.08333 12.0833V12.0833ZM12.5 0.833313C11.5833 0.833313 10.8333 1.58331 10.8333 2.49998C10.8333 3.41665 11.5833 4.16665 12.5 4.16665C13.4167 4.16665 14.1667 3.41665 14.1667 2.49998C14.1667 1.58331 13.4167 0.833313 12.5 0.833313V0.833313ZM17.5 17.5083L15 20L12.5083 17.4916V16.25L6.59167 10.3416C6.33333 10.3833 6.08333 10.4 5.83333 10.4V8.59998C7.21667 8.62498 8.84167 7.87498 9.725 6.89998L10.8917 5.60831C11.05 5.43331 11.25 5.29165 11.4667 5.19165C11.7083 5.07498 11.9833 4.99998 12.2667 4.99998H12.2917C13.325 5.00831 14.1667 5.84998 14.1667 6.88331V11.675C14.1667 12.375 13.875 13.0166 13.4 13.475L10.4167 10.4916V8.59998C9.89167 9.03331 9.225 9.44998 8.50833 9.75831L13.75 15H15L17.5 17.5083V17.5083Z" />
</g>
</svg>