<svg width="20" height="20" viewBox="0 0 20 20" fill="none" xmlns="http://www.w3.org/2000/svg">
<path fill-rule="evenodd" clip-rule="evenodd" d="M10.8337 5.83268H9.16699V9.16601H5.83366V10.8327H9.16699V14.166H10.8337V10.8327H14.167V9.16601H10.8337V5.83268ZM10.0003 1.66602C5.40033 1.66602 1.66699 5.39935 1.66699 9.99935C1.66699 14.5993 5.40033 18.3327 10.0003 18.3327C14.6003 18.3327 18.3337 14.5993 18.3337 9.99935C18.3337 5.39935 14.6003 1.66602 10.0003 1.66602ZM10.0003 16.666C6.32533 16.666 3.33366 13.6743 3.33366 9.99935C3.33366 6.32435 6.32533 3.33268 10.0003 3.33268C13.6753 3.33268 16.667 6.32435 16.667 9.99935C16.667 13.6743 13.6753 16.666 10.0003 16.666Z" fill="#008DFF"/>
</svg>
