<svg width="40" height="40" viewBox="0 0 40 40" fill="none" xmlns="http://www.w3.org/2000/svg">
<path d="M39 20C39 30.4934 30.4934 39 20 39C9.50659 39 1 30.4934 1 20C1 9.50659 9.50659 1 20 1C30.4934 1 39 9.50659 39 20Z" fill="#008DFF" stroke="white" stroke-width="2"/>
<path fill-rule="evenodd" clip-rule="evenodd" d="M22.667 19.334C23.7737 19.334 24.6603 18.4407 24.6603 17.334C24.6603 16.2273 23.7737 15.334 22.667 15.334C21.5603 15.334 20.667 16.2273 20.667 17.334C20.667 18.4407 21.5603 19.334 22.667 19.334ZM17.3337 19.334C18.4403 19.334 19.327 18.4407 19.327 17.334C19.327 16.2273 18.4403 15.334 17.3337 15.334C16.227 15.334 15.3337 16.2273 15.3337 17.334C15.3337 18.4407 16.227 19.334 17.3337 19.334ZM17.3337 20.6672C15.7803 20.6672 12.667 21.4472 12.667 23.0005V24.6672H22.0003V23.0005C22.0003 21.4472 18.887 20.6672 17.3337 20.6672ZM22.667 20.6672C22.4737 20.6672 22.2537 20.6805 22.0203 20.7005C22.7937 21.2605 23.3337 22.0138 23.3337 23.0005V24.6672H27.3337V23.0005C27.3337 21.4472 24.2203 20.6672 22.667 20.6672Z" fill="white"/>
</svg>
