<svg width="32" height="32" viewBox="0 0 32 32" fill="none" xmlns="http://www.w3.org/2000/svg">
<path d="M31 16C31 24.2843 24.2843 31 16 31C7.71573 31 1 24.2843 1 16C1 7.71573 7.71573 1 16 1C24.2843 1 31 7.71573 31 16Z" fill="#0D9372" stroke="white" stroke-width="2"/>
<path fill-rule="evenodd" clip-rule="evenodd" d="M18.1333 15.4665C19.0187 15.4665 19.728 14.7518 19.728 13.8665C19.728 12.9811 19.0187 12.2665 18.1333 12.2665C17.248 12.2665 16.5333 12.9811 16.5333 13.8665C16.5333 14.7518 17.248 15.4665 18.1333 15.4665ZM13.8667 15.4665C14.752 15.4665 15.4614 14.7518 15.4614 13.8665C15.4614 12.9811 14.752 12.2665 13.8667 12.2665C12.9814 12.2665 12.2667 12.9811 12.2667 13.8665C12.2667 14.7518 12.9814 15.4665 13.8667 15.4665ZM13.8667 16.533C12.624 16.533 10.1333 17.157 10.1333 18.3996V19.733H17.6V18.3996C17.6 17.157 15.1093 16.533 13.8667 16.533ZM18.1334 16.533C17.9787 16.533 17.8027 16.5436 17.616 16.5596C18.2347 17.0076 18.6667 17.6103 18.6667 18.3996V19.733H21.8667V18.3996C21.8667 17.157 19.376 16.533 18.1334 16.533Z" fill="white"/>
</svg>
