<svg width="32" height="32" viewBox="0 0 32 32" fill="none" xmlns="http://www.w3.org/2000/svg">
<path d="M31.5 16C31.5 24.5604 24.5604 31.5 16 31.5C7.43959 31.5 0.5 24.5604 0.5 16C0.5 7.43959 7.43959 0.5 16 0.5C24.5604 0.5 31.5 7.43959 31.5 16Z" fill="white" stroke="#F8FAFB"/>
<path fill-rule="evenodd" clip-rule="evenodd" d="M11.2 18.6664V19.7331H14.4V18.6664H11.2ZM11.2 12.2664V13.3331H16.5333V12.2664H11.2ZM16.5333 20.8V19.7333H20.8V18.6666H16.5333V17.6H15.4667V20.8H16.5333ZM13.3333 14.4V15.4666H11.2V16.5333H13.3333V17.6H14.4V14.4H13.3333ZM20.8 16.5331V15.4664H15.4667V16.5331H20.8ZM17.6 14.4H18.6667V13.3333H20.8V12.2666H18.6667V11.2H17.6V14.4Z" fill="#98A9BC"/>
</svg>
