<svg width="20" height="20" viewBox="0 0 20 20" fill="none" xmlns="http://www.w3.org/2000/svg">
<path fill-rule="evenodd" clip-rule="evenodd" d="M13.775 9.21658L12.8917 8.33325L8.82499 12.3999L7.05833 10.6333L6.17499 11.5166L8.82499 14.1666L13.775 9.21658V9.21658ZM15.8333 2.49992H15V0.833252H13.3333V2.49992H6.66667V0.833252H5V2.49992H4.16667C3.24167 2.49992 2.50833 3.24992 2.50833 4.16659L2.5 15.8333C2.5 16.7499 3.24167 17.4999 4.16667 17.4999H15.8333C16.75 17.4999 17.5 16.7499 17.5 15.8333V4.16659C17.5 3.24992 16.75 2.49992 15.8333 2.49992V2.49992ZM15.8333 15.8333H4.16667V6.66659H15.8333V15.8333V15.8333Z" fill="#0D9372"/>
</svg>
