<svg width="16" height="16" viewBox="0 0 16 16" fill="none" xmlns="http://www.w3.org/2000/svg">
<path fill-rule="evenodd" clip-rule="evenodd" d="M7.33325 12.0002H8.66659V10.6668H7.33325V12.0002V12.0002ZM7.99992 1.3335C4.31992 1.3335 1.33325 4.32016 1.33325 8.00016C1.33325 11.6802 4.31992 14.6668 7.99992 14.6668C11.6799 14.6668 14.6666 11.6802 14.6666 8.00016C14.6666 4.32016 11.6799 1.3335 7.99992 1.3335V1.3335ZM7.99992 13.3335C5.05992 13.3335 2.66659 10.9402 2.66659 8.00016C2.66659 5.06016 5.05992 2.66683 7.99992 2.66683C10.9399 2.66683 13.3333 5.06016 13.3333 8.00016C13.3333 10.9402 10.9399 13.3335 7.99992 13.3335V13.3335ZM7.99992 4.00016C6.52659 4.00016 5.33325 5.1935 5.33325 6.66683H6.66659C6.66659 5.9335 7.26659 5.3335 7.99992 5.3335C8.73325 5.3335 9.33325 5.9335 9.33325 6.66683C9.33325 8.00016 7.33325 7.8335 7.33325 10.0002H8.66659C8.66659 8.50016 10.6666 8.3335 10.6666 6.66683C10.6666 5.1935 9.47325 4.00016 7.99992 4.00016V4.00016Z" fill="#98A9BC"/>
</svg>
