<svg width="20" height="20" viewBox="0 0 20 20" fill="none" xmlns="http://www.w3.org/2000/svg">
<path fill-rule="evenodd" clip-rule="evenodd" d="M14.1667 8.33331H5.83333V9.99998H14.1667V8.33331V8.33331ZM15.8333 2.49998H15V0.833313H13.3333V2.49998H6.66667V0.833313H5V2.49998H4.16667C3.24167 2.49998 2.50833 3.24998 2.50833 4.16665L2.5 15.8333C2.5 16.75 3.24167 17.5 4.16667 17.5H15.8333C16.75 17.5 17.5 16.75 17.5 15.8333V4.16665C17.5 3.24998 16.75 2.49998 15.8333 2.49998V2.49998ZM15.8333 15.8333H4.16667V6.66665H15.8333V15.8333V15.8333ZM11.6667 11.6666H5.83333V13.3333H11.6667V11.6666V11.6666Z" fill="#008dff"/>
</svg>
