<svg width="24" height="24" viewBox="0 0 24 24" fill="none" xmlns="http://www.w3.org/2000/svg">
<path fill-rule="evenodd" clip-rule="evenodd" d="M2 12C2 6.48 6.48 2 12 2C17.52 2 22 6.48 22 12C22 17.52 17.52 22 12 22C6.48 22 2 17.52 2 12ZM6.17573 12.8728L10.0757 16.7728C10.31 17.0071 10.6899 17.0071 10.9243 16.7728L17.8243 9.87279C18.0586 9.63846 18.0586 9.25857 17.8243 9.02426L16.9758 8.17573C16.7415 7.94142 16.3615 7.94142 16.1272 8.17573L10.5 13.8029L7.87277 11.1757C7.63846 10.9414 7.25854 10.9414 7.02424 11.1757L6.17573 12.0243C5.94142 12.2586 5.94142 12.6385 6.17573 12.8728Z" fill="white"/>
</svg>
