<svg width="12" height="12" viewBox="0 0 12 12" fill="none" xmlns="http://www.w3.org/2000/svg">
<path fill-rule="evenodd" clip-rule="evenodd" d="M7.21221 6.00002L9.43454 3.77769C9.76928 3.44295 9.76928 2.90024 9.43454 2.5655C9.09981 2.23077 8.55709 2.23077 8.22236 2.5655L6.00002 4.78784L3.77769 2.5655C3.44295 2.23077 2.90024 2.23077 2.5655 2.5655C2.23077 2.90024 2.23077 3.44295 2.5655 3.77769L4.78784 6.00002L2.5655 8.22236C2.23077 8.55709 2.23077 9.09981 2.5655 9.43454C2.90024 9.76928 3.44295 9.76928 3.77769 9.43454L6.00002 7.21221L8.22236 9.43454C8.55709 9.76928 9.09981 9.76928 9.43454 9.43454C9.76928 9.09981 9.76928 8.55709 9.43454 8.22236L7.21221 6.00002Z" fill="#98A9BC"/>
</svg>
