<svg width="16" height="18" viewBox="0 0 16 18" fill="none" xmlns="http://www.w3.org/2000/svg">
<path fill-rule="evenodd" clip-rule="evenodd" d="M13.8333 2.49967H13V0.833008H11.3333V2.49967H4.66667V0.833008H3V2.49967H2.16667C1.24167 2.49967 0.5 3.24967 0.5 4.16634V15.833C0.5 16.7497 1.24167 17.4997 2.16667 17.4997H13.8333C14.75 17.4997 15.5 16.7497 15.5 15.833V4.16634C15.5 3.24967 14.75 2.49967 13.8333 2.49967ZM8 4.99967C9.38333 4.99967 10.5 6.11634 10.5 7.49967C10.5 8.88301 9.38333 9.99967 8 9.99967C6.61667 9.99967 5.5 8.88301 5.5 7.49967C5.5 6.11634 6.61667 4.99967 8 4.99967ZM13 14.9997H3V14.1663C3 12.4997 6.33333 11.583 8 11.583C9.66667 11.583 13 12.4997 13 14.1663V14.9997Z" fill="#98A9BC"/>
</svg>
