<svg width="37" height="37" viewBox="0 0 37 37" fill="none" xmlns="http://www.w3.org/2000/svg">
<path d="M8.6516 3.81078V13.4929C8.6516 14.7644 8.90203 16.0235 9.38861 17.1981C9.87518 18.3728 10.5884 19.4402 11.4874 20.3393C12.3865 21.2383 13.4539 21.9515 14.6286 22.4381C15.8033 22.9247 17.0623 23.1751 18.3338 23.1751C19.6052 23.1751 20.8643 22.9247 22.039 22.4381C23.2137 21.9515 24.281 21.2383 25.1801 20.3393C26.0792 19.4402 26.7923 18.3728 27.2789 17.1981C27.7655 16.0235 28.0159 14.7644 28.0159 13.4929V3.81078H8.6516ZM19.9481 26.3034V31.0423H25.1331V32.834H10.7998V31.0423H16.7195V26.3034C13.5997 25.9098 10.7309 24.3911 8.65134 22.0325C6.5718 19.6739 5.42451 16.6374 5.4248 13.4929V0.583984H31.2427V13.4929C31.243 16.6374 30.0957 19.6739 28.0162 22.0325C25.9366 24.3911 23.0678 25.9098 19.9481 26.3034ZM7.0391 34.4716H28.5391V36.2632H7.0391V34.4716Z" fill="#657E94"/>
<path d="M5.42458 7.04007H2.196V11.8812C2.196 13.9882 3.54333 15.7816 5.421 16.4463C6.49779 16.8709 7.03708 16.9623 7.03708 16.7204C7.03708 14.8732 6.49958 11.6447 5.42279 7.04007H5.42458ZM7.03708 18.3347C5.32563 18.3343 3.68441 17.6542 2.47423 16.444C1.26405 15.2338 0.583971 13.5926 0.583496 11.8812V5.42578H7.03887V18.3347H7.03708ZM31.2425 7.04007H34.4711V11.8812C34.4709 12.8825 34.1604 13.8592 33.5822 14.6768C33.004 15.4943 32.1866 16.1125 31.2425 16.4463C30.1675 16.8709 29.63 16.9623 29.63 16.7204C29.63 14.8732 30.1675 11.6447 31.2425 7.04007ZM29.63 18.3347C31.3414 18.3343 32.9827 17.6542 34.1928 16.444C35.403 15.2338 36.0831 13.5926 36.0836 11.8812V5.42578H29.63V18.3347Z" fill="#657E94"/>
</svg>
