<svg width="16" height="16" viewBox="0 0 16 16" fill="none" xmlns="http://www.w3.org/2000/svg">
<path fill-rule="evenodd" clip-rule="evenodd" d="M3.99996 6.66675C3.26663 6.66675 2.66663 7.26675 2.66663 8.00008C2.66663 8.73341 3.26663 9.33341 3.99996 9.33341C4.73329 9.33341 5.33329 8.73341 5.33329 8.00008C5.33329 7.26675 4.73329 6.66675 3.99996 6.66675ZM12 6.66675C11.2666 6.66675 10.6666 7.26675 10.6666 8.00008C10.6666 8.73341 11.2666 9.33341 12 9.33341C12.7333 9.33341 13.3333 8.73341 13.3333 8.00008C13.3333 7.26675 12.7333 6.66675 12 6.66675ZM7.99996 6.66675C7.26663 6.66675 6.66663 7.26675 6.66663 8.00008C6.66663 8.73341 7.26663 9.33341 7.99996 9.33341C8.73329 9.33341 9.33329 8.73341 9.33329 8.00008C9.33329 7.26675 8.73329 6.66675 7.99996 6.66675Z" fill="#98A9BC"/>
</svg>
