<svg width="16" height="16" viewBox="0 0 16 16" fill="none" xmlns="http://www.w3.org/2000/svg">
<path fill-rule="evenodd" clip-rule="evenodd" d="M0.883078 3.05176e-05C0.395359 3.05176e-05 0 0.395406 0 0.883109V15.117C0 15.6046 0.395234 16 0.883078 16H8.54688V9.81253H6.46875V7.39066H8.54688V5.60837C8.54688 3.54178 9.80895 2.41647 11.6524 2.41647C12.5354 2.41647 13.2944 2.48222 13.5156 2.51161V4.67133L12.2443 4.67191C11.2411 4.67191 11.0469 5.14859 11.0469 5.84811V7.39066H13.4451L13.1328 9.81253H11.0469V16H15.1169C15.6046 16 16 15.6047 16 15.117V0.883109C16 0.395406 15.6046 3.05176e-05 15.1169 3.05176e-05H0.883078Z" fill="#98A9BC"/>
<mask id="mask0" mask-type="alpha" maskUnits="userSpaceOnUse" x="0" y="0" width="16" height="16">
<path fill-rule="evenodd" clip-rule="evenodd" d="M0.883078 3.05176e-05C0.395359 3.05176e-05 0 0.395406 0 0.883109V15.117C0 15.6046 0.395234 16 0.883078 16H8.54688V9.81253H6.46875V7.39066H8.54688V5.60837C8.54688 3.54178 9.80895 2.41647 11.6524 2.41647C12.5354 2.41647 13.2944 2.48222 13.5156 2.51161V4.67133L12.2443 4.67191C11.2411 4.67191 11.0469 5.14859 11.0469 5.84811V7.39066H13.4451L13.1328 9.81253H11.0469V16H15.1169C15.6046 16 16 15.6047 16 15.117V0.883109C16 0.395406 15.6046 3.05176e-05 15.1169 3.05176e-05H0.883078Z" fill="white"/>
</mask>
<g mask="url(#mask0)">
<rect x="-1" y="-0.999969" width="18" height="18" fill="#98A9BC"/>
</g>
</svg>
