<svg width="18" height="18" viewBox="0 0 18 18" fill="none" xmlns="http://www.w3.org/2000/svg">
<path fill-rule="evenodd" clip-rule="evenodd" d="M5.58607 7.41277V9.59154C5.58607 9.59154 7.73157 9.58729 8.6079 9.58729C8.13304 10.9973 7.39917 11.7661 5.58607 11.7661C3.75139 11.7661 2.32249 10.305 2.32249 8.50003C2.32249 6.69501 3.7557 5.23401 5.58607 5.23401C6.55737 5.23401 7.18332 5.56953 7.75747 6.03671C8.21938 5.58227 8.18052 5.51856 9.3504 4.4313C8.35752 3.54366 7.03655 3.00003 5.59038 3.00003C2.5038 3.00003 0 5.46335 0 8.50003C0 11.5367 2.5038 14 5.59038 14C10.2052 14 11.3319 10.046 10.9563 7.41277C9.86412 7.41277 5.58607 7.41277 5.58607 7.41277ZM15.5923 8.30775V6.30003H14.1614V8.30775H12.1V9.73865H14.1614V11.8H15.5923V9.73865H17.6V8.30775H15.5923Z" fill="#98A9BC"/>
<mask id="mask0" mask-type="alpha" maskUnits="userSpaceOnUse" x="0" y="3" width="18" height="11">
<path fill-rule="evenodd" clip-rule="evenodd" d="M5.58607 7.41277V9.59154C5.58607 9.59154 7.73157 9.58729 8.6079 9.58729C8.13304 10.9973 7.39917 11.7661 5.58607 11.7661C3.75139 11.7661 2.32249 10.305 2.32249 8.50003C2.32249 6.69501 3.7557 5.23401 5.58607 5.23401C6.55737 5.23401 7.18332 5.56953 7.75747 6.03671C8.21938 5.58227 8.18052 5.51856 9.3504 4.4313C8.35752 3.54366 7.03655 3.00003 5.59038 3.00003C2.5038 3.00003 0 5.46335 0 8.50003C0 11.5367 2.5038 14 5.59038 14C10.2052 14 11.3319 10.046 10.9563 7.41277C9.86412 7.41277 5.58607 7.41277 5.58607 7.41277ZM15.5923 8.30775V6.30003H14.1614V8.30775H12.1V9.73865H14.1614V11.8H15.5923V9.73865H17.6V8.30775H15.5923Z" fill="white"/>
</mask>
<g mask="url(#mask0)">
<rect y="3.05176e-05" width="18" height="18" fill="#98A9BC"/>
</g>
</svg>
