<svg width="18" height="18" viewBox="0 0 18 18" fill="none" xmlns="http://www.w3.org/2000/svg">
<path fill-rule="evenodd" clip-rule="evenodd" d="M16.5796 3.75737C16.3756 3.23187 16.1036 2.78674 15.6584 2.34161C15.2133 1.89648 14.7682 1.62445 14.2427 1.42043C13.7357 1.2226 13.1484 1.08658 12.3014 1.04949L12.287 1.04886C11.4451 1.01226 11.1639 1.00003 9 1.00003C6.8238 1.00003 6.55178 1.00621 5.69861 1.04949C4.84544 1.08658 4.2643 1.2226 3.75734 1.42043C3.23184 1.62445 2.78671 1.89648 2.34158 2.34161C1.89645 2.78674 1.62442 3.23187 1.4204 3.75737C1.22257 4.26433 1.08655 4.85165 1.04946 5.69864L1.04883 5.71302C1.01223 6.55494 1 6.8361 1 9.00003C1 11.1762 1.00618 11.4483 1.04946 12.3014C1.08655 13.1546 1.22257 13.7357 1.4204 14.2427C1.62442 14.7682 1.89645 15.2133 2.34158 15.6585C2.78671 16.1036 3.23184 16.3756 3.75734 16.5796C4.2643 16.7775 4.85162 16.9135 5.69861 16.9506L5.713 16.9512C6.55491 16.9878 6.83609 17 9 17C11.1762 17 11.4482 16.9938 12.3014 16.9506C13.1546 16.9135 13.7357 16.7775 14.2427 16.5796C14.7682 16.3756 15.2133 16.1036 15.6584 15.6585C16.1036 15.2133 16.3756 14.7682 16.5796 14.2427C16.7774 13.7357 16.9134 13.1484 16.9505 12.3014L16.9512 12.287C16.9878 11.4451 17 11.1639 17 9.00003C17 6.82383 16.9938 6.55181 16.9505 5.69864C16.9134 4.84547 16.7774 4.26433 16.5796 3.75737ZM14.9548 11.9548C14.9209 12.6667 14.8023 13.0565 14.7006 13.3108C14.5706 13.6497 14.4068 13.8983 14.1525 14.1526C13.8983 14.4068 13.6554 14.565 13.3107 14.7006C13.0508 14.8023 12.6667 14.9209 11.9548 14.9548L11.918 14.9564C11.1731 14.9891 10.9235 15 9 15C7.0452 15 6.81356 14.9944 6.0452 14.9548C5.33333 14.9209 4.9435 14.8023 4.68927 14.7006C4.35028 14.5707 4.1017 14.4068 3.84746 14.1526C3.59322 13.8983 3.43503 13.6554 3.29944 13.3108C3.19774 13.0509 3.0791 12.6667 3.0452 11.9548L3.04386 11.9243C3.011 11.1744 3 10.9233 3 9.00003C3 7.05088 3.00565 6.81359 3.0452 6.04523C3.0791 5.33336 3.19774 4.94353 3.29944 4.6893C3.42938 4.35031 3.59322 4.10173 3.84746 3.84749C4.1017 3.59325 4.34463 3.43506 4.68927 3.29947C4.94915 3.19777 5.33333 3.07913 6.0452 3.04523L6.07577 3.04389C6.82567 3.01103 7.07674 3.00003 9 3.00003C10.9492 3.00003 11.1864 3.00568 11.9548 3.04523C12.6667 3.07913 13.0565 3.19777 13.3107 3.29947C13.6497 3.42941 13.8983 3.59325 14.1525 3.84749C14.4068 4.10173 14.565 4.34466 14.7006 4.6893C14.8023 4.94918 14.9209 5.33336 14.9548 6.04523L14.9561 6.07579V6.07581C14.989 6.8257 15 7.07679 15 9.00003C15 10.9306 14.9889 11.1818 14.9558 11.933L14.9548 11.9548ZM14 5.00003C14 5.55232 13.5523 6.00003 13 6.00003C12.4477 6.00003 12 5.55232 12 5.00003C12 4.44775 12.4477 4.00003 13 4.00003C13.5523 4.00003 14 4.44775 14 5.00003ZM9 5.00003C6.79248 5.00003 5 6.79251 5 9.00003C5 11.2075 6.79248 13 9 13C11.2075 13 13 11.2075 13 9.00003C13 6.79251 11.2075 5.00003 9 5.00003ZM7 9.00003C7 10.1065 7.89815 11 9 11C10.1019 11 11 10.1019 11 9.00003C11 7.89355 10.1065 7.00003 9 7.00003C7.89352 7.00003 7 7.89818 7 9.00003Z" fill="#98A9BC"/>
<mask id="mask0" mask-type="alpha" maskUnits="userSpaceOnUse" x="1" y="1" width="16" height="16">
<path fill-rule="evenodd" clip-rule="evenodd" d="M16.5796 3.75737C16.3756 3.23187 16.1036 2.78674 15.6584 2.34161C15.2133 1.89648 14.7682 1.62445 14.2427 1.42043C13.7357 1.2226 13.1484 1.08658 12.3014 1.04949L12.287 1.04886C11.4451 1.01226 11.1639 1.00003 9 1.00003C6.8238 1.00003 6.55178 1.00621 5.69861 1.04949C4.84544 1.08658 4.2643 1.2226 3.75734 1.42043C3.23184 1.62445 2.78671 1.89648 2.34158 2.34161C1.89645 2.78674 1.62442 3.23187 1.4204 3.75737C1.22257 4.26433 1.08655 4.85165 1.04946 5.69864L1.04883 5.71302C1.01223 6.55494 1 6.8361 1 9.00003C1 11.1762 1.00618 11.4483 1.04946 12.3014C1.08655 13.1546 1.22257 13.7357 1.4204 14.2427C1.62442 14.7682 1.89645 15.2133 2.34158 15.6585C2.78671 16.1036 3.23184 16.3756 3.75734 16.5796C4.2643 16.7775 4.85162 16.9135 5.69861 16.9506L5.713 16.9512C6.55491 16.9878 6.83609 17 9 17C11.1762 17 11.4482 16.9938 12.3014 16.9506C13.1546 16.9135 13.7357 16.7775 14.2427 16.5796C14.7682 16.3756 15.2133 16.1036 15.6584 15.6585C16.1036 15.2133 16.3756 14.7682 16.5796 14.2427C16.7774 13.7357 16.9134 13.1484 16.9505 12.3014L16.9512 12.287C16.9878 11.4451 17 11.1639 17 9.00003C17 6.82383 16.9938 6.55181 16.9505 5.69864C16.9134 4.84547 16.7774 4.26433 16.5796 3.75737ZM14.9548 11.9548C14.9209 12.6667 14.8023 13.0565 14.7006 13.3108C14.5706 13.6497 14.4068 13.8983 14.1525 14.1526C13.8983 14.4068 13.6554 14.565 13.3107 14.7006C13.0508 14.8023 12.6667 14.9209 11.9548 14.9548L11.918 14.9564C11.1731 14.9891 10.9235 15 9 15C7.0452 15 6.81356 14.9944 6.0452 14.9548C5.33333 14.9209 4.9435 14.8023 4.68927 14.7006C4.35028 14.5707 4.1017 14.4068 3.84746 14.1526C3.59322 13.8983 3.43503 13.6554 3.29944 13.3108C3.19774 13.0509 3.0791 12.6667 3.0452 11.9548L3.04386 11.9243C3.011 11.1744 3 10.9233 3 9.00003C3 7.05088 3.00565 6.81359 3.0452 6.04523C3.0791 5.33336 3.19774 4.94353 3.29944 4.6893C3.42938 4.35031 3.59322 4.10173 3.84746 3.84749C4.1017 3.59325 4.34463 3.43506 4.68927 3.29947C4.94915 3.19777 5.33333 3.07913 6.0452 3.04523L6.07577 3.04389C6.82567 3.01103 7.07674 3.00003 9 3.00003C10.9492 3.00003 11.1864 3.00568 11.9548 3.04523C12.6667 3.07913 13.0565 3.19777 13.3107 3.29947C13.6497 3.42941 13.8983 3.59325 14.1525 3.84749C14.4068 4.10173 14.565 4.34466 14.7006 4.6893C14.8023 4.94918 14.9209 5.33336 14.9548 6.04523L14.9561 6.07579V6.07581C14.989 6.8257 15 7.07679 15 9.00003C15 10.9306 14.9889 11.1818 14.9558 11.933L14.9548 11.9548ZM14 5.00003C14 5.55232 13.5523 6.00003 13 6.00003C12.4477 6.00003 12 5.55232 12 5.00003C12 4.44775 12.4477 4.00003 13 4.00003C13.5523 4.00003 14 4.44775 14 5.00003ZM9 5.00003C6.79248 5.00003 5 6.79251 5 9.00003C5 11.2075 6.79248 13 9 13C11.2075 13 13 11.2075 13 9.00003C13 6.79251 11.2075 5.00003 9 5.00003ZM7 9.00003C7 10.1065 7.89815 11 9 11C10.1019 11 11 10.1019 11 9.00003C11 7.89355 10.1065 7.00003 9 7.00003C7.89352 7.00003 7 7.89818 7 9.00003Z" fill="white"/>
</mask>
<g mask="url(#mask0)">
<rect y="3.05176e-05" width="18" height="18" fill="#98A9BC"/>
</g>
</svg>
