<svg width="22" height="22" viewBox="0 0 22 22" fill="none" xmlns="http://www.w3.org/2000/svg">
<path fill-rule="evenodd" clip-rule="evenodd" d="M11 7.33335C12.0084 7.33335 12.8334 6.50835 12.8334 5.50002C12.8334 4.49169 12.0084 3.66669 11 3.66669C9.99169 3.66669 9.16669 4.49169 9.16669 5.50002C9.16669 6.50835 9.99169 7.33335 11 7.33335ZM11 9.16669C9.99169 9.16669 9.16669 9.99169 9.16669 11C9.16669 12.0084 9.99169 12.8334 11 12.8334C12.0084 12.8334 12.8334 12.0084 12.8334 11C12.8334 9.99169 12.0084 9.16669 11 9.16669ZM11 14.6667C9.99169 14.6667 9.16669 15.4917 9.16669 16.5C9.16669 17.5084 9.99169 18.3334 11 18.3334C12.0084 18.3334 12.8334 17.5084 12.8334 16.5C12.8334 15.4917 12.0084 14.6667 11 14.6667Z" fill="#98A9BC"/>
</svg>
