<svg width="63" height="59" viewBox="0 0 63 59" fill="none" xmlns="http://www.w3.org/2000/svg">
<path d="M23.669 37.277C27.1776 37.2841 29.2727 34.5142 29.2727 29.7415C29.2727 24.9972 27.1634 22.2557 23.669 22.2557C20.1747 22.2557 18.0724 24.9901 18.0653 29.7415C18.0653 34.5071 20.1605 37.277 23.669 37.277ZM23.669 35.054C21.858 35.054 20.7216 33.2358 20.7287 29.7415C20.7358 26.2756 21.8651 24.4503 23.669 24.4503C25.4801 24.4503 26.6094 26.2756 26.6165 29.7415C26.6165 33.2358 25.4872 35.054 23.669 35.054ZM39.4094 34.2727C39.4165 35.9631 40.489 37.4048 42.4847 37.4048C44.4734 37.4048 45.5671 35.9631 45.56 34.2727V33.5057C45.5671 31.8011 44.5018 30.3736 42.4847 30.3736C40.5174 30.3736 39.4165 31.8153 39.4094 33.5057V34.2727ZM32.016 25.9489C32.0231 27.6392 33.0955 29.0668 35.0984 29.0668C37.0799 29.0668 38.1737 27.6534 38.1665 25.9489V25.1818C38.1737 23.4773 37.1083 22.0497 35.0984 22.0497C33.1381 22.0497 32.0231 23.4773 32.016 25.1818V25.9489ZM32.6552 37H34.4379L44.4379 22.4545H42.6552L32.6552 37ZM41.2631 33.5057C41.2702 32.7528 41.5898 31.9929 42.4847 31.9929C43.4222 31.9929 43.6992 32.7528 43.6921 33.5057V34.2727C43.6992 35.0256 43.3938 35.7713 42.4847 35.7713C41.5756 35.7713 41.2702 35.0185 41.2631 34.2727V33.5057ZM33.8839 25.1818C33.891 24.4361 34.1964 23.669 35.0984 23.669C36.0359 23.669 36.3058 24.429 36.2987 25.1818V25.9489C36.3058 26.7017 36.0075 27.4474 35.0984 27.4474C34.1893 27.4474 33.891 26.7017 33.8839 25.9489V25.1818Z" fill="#657E94"/>
<path d="M58.5 29.5C58.5 44.9403 45.764 57.5 30 57.5C14.236 57.5 1.5 44.9403 1.5 29.5C1.5 14.0597 14.236 1.5 30 1.5C45.764 1.5 58.5 14.0597 58.5 29.5Z" stroke="#A9BBC9" stroke-opacity="0.2" stroke-width="3"/>
</svg>
