<svg width="60" height="60" viewBox="0 0 60 60" fill="none" xmlns="http://www.w3.org/2000/svg">
<g opacity="0.15">
<path d="M30 60C46.5685 60 60 46.5685 60 30C60 13.4315 46.5685 0 30 0C13.4315 0 0 13.4315 0 30C0 46.5685 13.4315 60 30 60Z" fill="#E8ECEF"/>
<mask id="mask0" mask-type="alpha" maskUnits="userSpaceOnUse" x="0" y="0" width="60" height="60">
<path d="M30 60C46.5685 60 60 46.5685 60 30C60 13.4315 46.5685 0 30 0C13.4315 0 0 13.4315 0 30C0 46.5685 13.4315 60 30 60Z" fill="white"/>
</mask>
<g mask="url(#mask0)">
<rect x="-3" y="-6" width="63" height="70" fill="#008DFF"/>
</g>
</g>
<path fill-rule="evenodd" clip-rule="evenodd" d="M30 54C43.2548 54 54 43.2548 54 30C54 16.7452 43.2548 6 30 6C16.7452 6 6 16.7452 6 30C6 43.2548 16.7452 54 30 54Z" fill="#008DFF"/>
<path d="M53 30C53 42.7026 42.7026 53 30 53C17.2975 53 7 42.7026 7 30C7 17.2975 17.2975 7 30 7C42.7026 7 53 17.2975 53 30Z" stroke="url(#paint0_linear)" stroke-opacity="0.5" stroke-width="2"/>
<path fill-rule="evenodd" clip-rule="evenodd" d="M29.9999 22C26.9039 22 24.3999 24.504 24.3999 27.6C24.3999 31.8 29.9999 38 29.9999 38C29.9999 38 35.5999 31.8 35.5999 27.6C35.5999 24.504 33.0959 22 29.9999 22ZM29.9999 29.6C28.8959 29.6 27.9999 28.704 27.9999 27.6C27.9999 26.496 28.8959 25.6 29.9999 25.6C31.1039 25.6 31.9999 26.496 31.9999 27.6C31.9999 28.704 31.1039 29.6 29.9999 29.6Z" fill="white"/>
<defs>
<linearGradient id="paint0_linear" x1="4.16092" y1="47.7471" x2="54.2443" y2="45.2069" gradientUnits="userSpaceOnUse">
<stop stop-color="#EAF1F9" stop-opacity="0.5"/>
<stop offset="1" stop-color="#008EFF" stop-opacity="0.3"/>
</linearGradient>
</defs>
</svg>
