<svg width="16" height="16" viewBox="0 0 16 16" fill="none" xmlns="http://www.w3.org/2000/svg">
<path d="M7.23088 7.60873C7.2069 6.47256 6.96613 5.35143 6.52151 4.3056C3.68401 5.6306 1.59963 8.1306 0.887134 11.0806C1.3041 12.036 1.90878 12.8978 2.66526 13.615C3.38465 11.1135 5.01308 8.97121 7.23088 7.60873ZM6.07776 3.40873C5.60247 2.58065 4.99678 1.83461 4.28401 1.19935C1.44026 2.7556 -0.24099 5.97748 0.377759 9.3931C1.42151 6.79623 3.45276 4.6431 6.07776 3.40873ZM11.9403 8.5681C12.209 5.44935 11.0871 2.39623 8.89338 0.305601C8.434 0.252476 7.28088 0.133726 5.80276 0.571226C7.61124 2.44524 8.65346 4.92787 8.72463 7.53123C9.72053 8.07886 10.812 8.43082 11.9403 8.5681ZM8.04338 8.86498C7.07139 9.45511 6.2208 10.2251 5.53713 11.1337C8.09963 12.9244 11.3028 13.4806 14.209 12.6275C14.8341 11.7899 15.2828 10.8341 15.5278 9.8181C14.7014 10.0287 13.8524 10.1378 12.9996 10.1431C11.2934 10.14 9.5965 9.70248 8.04338 8.86498ZM4.97151 11.9806C4.49651 12.7931 4.16838 13.6806 3.96838 14.6119C5.35461 15.4627 6.97414 15.854 8.59591 15.73C10.2177 15.606 11.7589 14.9729 12.9996 13.9212C9.4715 14.4244 6.64651 13.1462 4.97151 11.9806ZM10.6059 0.711851C12.334 2.91185 13.184 5.74935 12.9371 8.63685C13.8891 8.63886 14.8354 8.48906 15.7402 8.1931C15.7402 8.1306 15.7496 8.0681 15.7496 8.0056C15.7496 4.63685 13.6028 1.78373 10.6059 0.711851Z" fill="#98A9BC"/>
</svg>
