<svg width="107" height="21" viewBox="0 0 107 21" fill="none" xmlns="http://www.w3.org/2000/svg">
<g opacity="0.7" filter="url(#filter0_i)">
<path d="M55.2969 12.7891C55.3672 14.9062 57.0938 16.1953 59.8047 16.1953C62.6016 16.1953 64.375 14.8125 64.375 12.625C64.375 10.9062 63.3906 9.9375 61.1328 9.45312L59.7656 9.16406C58.4688 8.86719 57.9219 8.47656 57.9219 7.78125C57.9219 6.94531 58.7031 6.39062 59.8672 6.39062C61.0469 6.39062 61.8828 6.96875 61.9609 7.92188H64.1719C64.1328 5.88281 62.4844 4.53125 59.8594 4.53125C57.3438 4.53125 55.5469 5.90625 55.5469 7.98438C55.5469 9.63281 56.5703 10.6875 58.6484 11.1328L60.1172 11.4531C61.4766 11.7578 62.0156 12.1641 62.0156 12.8984C62.0156 13.7266 61.1562 14.3281 59.8984 14.3281C58.6484 14.3281 57.6797 13.7188 57.5703 12.7891H55.2969Z" fill="url(#paint0_linear)"/>
<path d="M70.5234 7.49219C69.3125 7.49219 68.3828 8.10156 67.9297 9.08594H67.8828V7.625H65.6328V18.7344H67.9141V14.5938H67.9609C68.4062 15.5391 69.3438 16.1328 70.5625 16.1328C72.6562 16.1328 73.9531 14.5078 73.9531 11.8125C73.9531 9.10938 72.6484 7.49219 70.5234 7.49219ZM69.7578 14.2969C68.6406 14.2969 67.9062 13.3281 67.9062 11.8125C67.9062 10.3125 68.6406 9.32031 69.7578 9.32031C70.8984 9.32031 71.6172 10.2969 71.6172 11.8125C71.6172 13.3359 70.8984 14.2969 69.7578 14.2969Z" fill="url(#paint1_linear)"/>
<path d="M78.3672 14.4844C77.5938 14.4844 77.0781 14.0938 77.0781 13.4688C77.0781 12.875 77.5625 12.4922 78.4141 12.4297L80.1797 12.3203V12.9297C80.1797 13.8359 79.3594 14.4844 78.3672 14.4844ZM77.6172 16.1328C78.6641 16.1328 79.7031 15.6094 80.1719 14.7188H80.2188V16H82.4219V10.2422C82.4219 8.55469 81.0234 7.44531 78.875 7.44531C76.6562 7.44531 75.2734 8.5625 75.1875 10.1875H77.2734C77.3828 9.57031 77.9219 9.14844 78.7734 9.14844C79.6328 9.14844 80.1797 9.60156 80.1797 10.3828V10.9375L78.0703 11.0625C75.9844 11.1875 74.8125 12.0703 74.8125 13.5938C74.8125 15.1016 76.0234 16.1328 77.6172 16.1328Z" fill="url(#paint2_linear)"/>
<path d="M91.5078 10.7422C91.4062 8.84375 89.9688 7.44531 87.7031 7.44531C85.1953 7.44531 83.5938 9.11719 83.5938 11.8047C83.5938 14.5391 85.1953 16.1797 87.7188 16.1797C89.9219 16.1797 91.3984 14.9062 91.5156 12.9297H89.3906C89.25 13.8438 88.6562 14.3906 87.7422 14.3906C86.6094 14.3906 85.9062 13.4531 85.9062 11.8047C85.9062 10.1875 86.6094 9.23438 87.7344 9.23438C88.6719 9.23438 89.2578 9.85938 89.3906 10.7422H91.5078Z" fill="url(#paint3_linear)"/>
<path d="M96.375 9.13281C97.3906 9.13281 98.0859 9.86719 98.1328 10.9375H94.5781C94.6562 9.89062 95.375 9.13281 96.375 9.13281ZM98.1641 13.4375C97.9531 14.0781 97.3125 14.4922 96.4766 14.4922C95.3125 14.4922 94.5547 13.6719 94.5547 12.4766V12.3359H100.328V11.6406C100.328 9.09375 98.7891 7.44531 96.3516 7.44531C93.875 7.44531 92.3125 9.17969 92.3125 11.8516C92.3125 14.5312 93.8594 16.1797 96.4375 16.1797C98.5078 16.1797 100.008 15.0781 100.258 13.4375H98.1641Z" fill="url(#paint4_linear)"/>
</g>
<g filter="url(#filter1_d)">
<path d="M6.75 12.7891C6.82031 14.9062 8.54688 16.1953 11.2578 16.1953C14.0547 16.1953 15.8281 14.8125 15.8281 12.625C15.8281 10.9062 14.8438 9.9375 12.5859 9.45312L11.2188 9.16406C9.92188 8.86719 9.375 8.47656 9.375 7.78125C9.375 6.94531 10.1562 6.39062 11.3203 6.39062C12.5 6.39062 13.3359 6.96875 13.4141 7.92188H15.625C15.5859 5.88281 13.9375 4.53125 11.3125 4.53125C8.79688 4.53125 7 5.90625 7 7.98438C7 9.63281 8.02344 10.6875 10.1016 11.1328L11.5703 11.4531C12.9297 11.7578 13.4688 12.1641 13.4688 12.8984C13.4688 13.7266 12.6094 14.3281 11.3516 14.3281C10.1016 14.3281 9.13281 13.7188 9.02344 12.7891H6.75Z" fill="url(#paint5_linear)"/>
<path d="M21.9766 7.49219C20.7656 7.49219 19.8359 8.10156 19.3828 9.08594H19.3359V7.625H17.0859V18.7344H19.3672V14.5938H19.4141C19.8594 15.5391 20.7969 16.1328 22.0156 16.1328C24.1094 16.1328 25.4062 14.5078 25.4062 11.8125C25.4062 9.10938 24.1016 7.49219 21.9766 7.49219ZM21.2109 14.2969C20.0938 14.2969 19.3594 13.3281 19.3594 11.8125C19.3594 10.3125 20.0938 9.32031 21.2109 9.32031C22.3516 9.32031 23.0703 10.2969 23.0703 11.8125C23.0703 13.3359 22.3516 14.2969 21.2109 14.2969Z" fill="url(#paint6_linear)"/>
<path d="M30.4297 16.1797C32.9609 16.1797 34.5781 14.5625 34.5781 11.8047C34.5781 9.08594 32.9375 7.44531 30.4297 7.44531C27.9219 7.44531 26.2812 9.09375 26.2812 11.8047C26.2812 14.5547 27.8984 16.1797 30.4297 16.1797ZM30.4297 14.4375C29.3047 14.4375 28.5938 13.4922 28.5938 11.8125C28.5938 10.1484 29.3203 9.1875 30.4297 9.1875C31.5391 9.1875 32.2578 10.1484 32.2578 11.8125C32.2578 13.4922 31.5469 14.4375 30.4297 14.4375Z" fill="url(#paint7_linear)"/>
<path d="M35.7578 16H38.0391V11.3203C38.0391 10.1406 38.6953 9.45312 39.8203 9.45312C40.1484 9.45312 40.4609 9.50781 40.6484 9.58594V7.57812C40.4922 7.53125 40.2656 7.49219 40 7.49219C39.0156 7.49219 38.3047 8.07031 38.0078 9.13281H37.9609V7.625H35.7578V16Z" fill="url(#paint8_linear)"/>
<path d="M42.1953 5.69531V7.625H41.0156V9.34375H42.1953V13.7422C42.1953 15.375 42.9609 16.0312 44.9297 16.0312C45.3906 16.0312 45.7812 15.9922 46.0156 15.9375V14.2578C45.875 14.2812 45.6641 14.2969 45.4609 14.2969C44.7891 14.2969 44.4766 13.9922 44.4766 13.3516V9.34375H46.0234V7.625H44.4766V5.69531H42.1953Z" fill="url(#paint9_linear)"/>
<path d="M47.1328 10.0859C47.1328 11.3203 47.9453 12.1484 49.5312 12.5078L51.0781 12.8516C51.8281 13.0312 52.1094 13.2656 52.1094 13.6875C52.1094 14.2344 51.5859 14.5781 50.7188 14.5781C49.8125 14.5781 49.2578 14.1719 49.1484 13.4688H46.9219C47.0469 15.1016 48.4219 16.1797 50.6562 16.1797C52.8672 16.1797 54.3828 15.0938 54.3828 13.4453C54.3828 12.1953 53.7031 11.5312 52.0234 11.1562L50.4219 10.8125C49.6875 10.6406 49.3281 10.3594 49.3281 9.94531C49.3281 9.40625 49.8438 9.04688 50.6328 9.04688C51.4766 9.04688 52.0156 9.46094 52.0625 10.1328H54.1641C54.1328 8.50781 52.7656 7.44531 50.6641 7.44531C48.5156 7.44531 47.1328 8.49219 47.1328 10.0859Z" fill="url(#paint10_linear)"/>
</g>
<defs>
<filter id="filter0_i" x="54.7969" y="4.53125" width="45.5312" height="14.7031" filterUnits="userSpaceOnUse" color-interpolation-filters="sRGB">
<feFlood flood-opacity="0" result="BackgroundImageFix"/>
<feBlend mode="normal" in="SourceGraphic" in2="BackgroundImageFix" result="shape"/>
<feColorMatrix in="SourceAlpha" type="matrix" values="0 0 0 0 0 0 0 0 0 0 0 0 0 0 0 0 0 0 127 0" result="hardAlpha"/>
<feOffset dx="-0.5" dy="0.5"/>
<feGaussianBlur stdDeviation="0.25"/>
<feComposite in2="hardAlpha" operator="arithmetic" k2="-1" k3="1"/>
<feColorMatrix type="matrix" values="0 0 0 0 0.0309375 0 0 0 0 0.120206 0 0 0 0 0.225 0 0 0 0.1 0"/>
<feBlend mode="normal" in2="shape" result="effect1_innerShadow"/>
</filter>
<filter id="filter1_d" x="5.75" y="4.53125" width="48.6328" height="15.2031" filterUnits="userSpaceOnUse" color-interpolation-filters="sRGB">
<feFlood flood-opacity="0" result="BackgroundImageFix"/>
<feColorMatrix in="SourceAlpha" type="matrix" values="0 0 0 0 0 0 0 0 0 0 0 0 0 0 0 0 0 0 127 0"/>
<feOffset dx="-0.5" dy="0.5"/>
<feGaussianBlur stdDeviation="0.25"/>
<feColorMatrix type="matrix" values="0 0 0 0 0.145208 0 0 0 0 0.257125 0 0 0 0 0.425 0 0 0 0.15 0"/>
<feBlend mode="normal" in2="BackgroundImageFix" result="effect1_dropShadow"/>
<feBlend mode="normal" in="SourceGraphic" in2="effect1_dropShadow" result="shape"/>
</filter>
<linearGradient id="paint0_linear" x1="77.8125" y1="4.53125" x2="77.8125" y2="18.7344" gradientUnits="userSpaceOnUse">
<stop stop-color="#12C99B"/>
<stop offset="1" stop-color="#8EFC67"/>
</linearGradient>
<linearGradient id="paint1_linear" x1="77.8125" y1="4.53125" x2="77.8125" y2="18.7344" gradientUnits="userSpaceOnUse">
<stop stop-color="#12C99B"/>
<stop offset="1" stop-color="#8EFC67"/>
</linearGradient>
<linearGradient id="paint2_linear" x1="77.8125" y1="4.53125" x2="77.8125" y2="18.7344" gradientUnits="userSpaceOnUse">
<stop stop-color="#12C99B"/>
<stop offset="1" stop-color="#8EFC67"/>
</linearGradient>
<linearGradient id="paint3_linear" x1="77.8125" y1="4.53125" x2="77.8125" y2="18.7344" gradientUnits="userSpaceOnUse">
<stop stop-color="#12C99B"/>
<stop offset="1" stop-color="#8EFC67"/>
</linearGradient>
<linearGradient id="paint4_linear" x1="77.8125" y1="4.53125" x2="77.8125" y2="18.7344" gradientUnits="userSpaceOnUse">
<stop stop-color="#12C99B"/>
<stop offset="1" stop-color="#8EFC67"/>
</linearGradient>
<linearGradient id="paint5_linear" x1="30.5664" y1="4.53125" x2="30.5664" y2="18.7344" gradientUnits="userSpaceOnUse">
<stop stop-color="#12C99B"/>
<stop offset="1" stop-color="#32BF84"/>
</linearGradient>
<linearGradient id="paint6_linear" x1="30.5664" y1="4.53125" x2="30.5664" y2="18.7344" gradientUnits="userSpaceOnUse">
<stop stop-color="#12C99B"/>
<stop offset="1" stop-color="#32BF84"/>
</linearGradient>
<linearGradient id="paint7_linear" x1="30.5664" y1="4.53125" x2="30.5664" y2="18.7344" gradientUnits="userSpaceOnUse">
<stop stop-color="#12C99B"/>
<stop offset="1" stop-color="#32BF84"/>
</linearGradient>
<linearGradient id="paint8_linear" x1="30.5664" y1="4.53125" x2="30.5664" y2="18.7344" gradientUnits="userSpaceOnUse">
<stop stop-color="#12C99B"/>
<stop offset="1" stop-color="#32BF84"/>
</linearGradient>
<linearGradient id="paint9_linear" x1="30.5664" y1="4.53125" x2="30.5664" y2="18.7344" gradientUnits="userSpaceOnUse">
<stop stop-color="#12C99B"/>
<stop offset="1" stop-color="#32BF84"/>
</linearGradient>
<linearGradient id="paint10_linear" x1="30.5664" y1="4.53125" x2="30.5664" y2="18.7344" gradientUnits="userSpaceOnUse">
<stop stop-color="#12C99B"/>
<stop offset="1" stop-color="#32BF84"/>
</linearGradient>
</defs>
</svg>
