<svg width="20" height="20" viewBox="0 0 20 20" fill="none" xmlns="http://www.w3.org/2000/svg">
<path d="M1 12.7891C1.07031 14.9062 2.79688 16.1953 5.50781 16.1953C8.30469 16.1953 10.0781 14.8125 10.0781 12.625C10.0781 10.9062 9.09375 9.9375 6.83594 9.45312L5.46875 9.16406C4.17188 8.86719 3.625 8.47656 3.625 7.78125C3.625 6.94531 4.40625 6.39062 5.57031 6.39062C6.75 6.39062 7.58594 6.96875 7.66406 7.92188H9.875C9.83594 5.88281 8.1875 4.53125 5.5625 4.53125C3.04688 4.53125 1.25 5.90625 1.25 7.98438C1.25 9.63281 2.27344 10.6875 4.35156 11.1328L5.82031 11.4531C7.17969 11.7578 7.71875 12.1641 7.71875 12.8984C7.71875 13.7266 6.85938 14.3281 5.60156 14.3281C4.35156 14.3281 3.38281 13.7188 3.27344 12.7891H1Z" fill="url(#paint0_linear)"/>
<path opacity="0.7" d="M10 12.7891C10.0703 14.9062 11.7969 16.1953 14.5078 16.1953C17.3047 16.1953 19.0781 14.8125 19.0781 12.625C19.0781 10.9062 18.0938 9.9375 15.8359 9.45312L14.4688 9.16406C13.1719 8.86719 12.625 8.47656 12.625 7.78125C12.625 6.94531 13.4062 6.39062 14.5703 6.39062C15.75 6.39062 16.5859 6.96875 16.6641 7.92188H18.875C18.8359 5.88281 17.1875 4.53125 14.5625 4.53125C12.0469 4.53125 10.25 5.90625 10.25 7.98438C10.25 9.63281 11.2734 10.6875 13.3516 11.1328L14.8203 11.4531C16.1797 11.7578 16.7188 12.1641 16.7188 12.8984C16.7188 13.7266 15.8594 14.3281 14.6016 14.3281C13.3516 14.3281 12.3828 13.7188 12.2734 12.7891H10Z" fill="url(#paint1_linear)"/>
<defs>
<linearGradient id="paint0_linear" x1="5.53906" y1="4.53125" x2="5.53906" y2="16.1953" gradientUnits="userSpaceOnUse">
<stop stop-color="#12C99B"/>
<stop offset="1" stop-color="#32BF84"/>
</linearGradient>
<linearGradient id="paint1_linear" x1="14.5391" y1="4.53125" x2="14.5391" y2="16.1953" gradientUnits="userSpaceOnUse">
<stop stop-color="#12C99B"/>
<stop offset="1" stop-color="#32BF84"/>
</linearGradient>
</defs>
</svg>
