<svg fill="none" height="24" viewBox="0 0 144 24" width="144" xmlns="http://www.w3.org/2000/svg"><g fill="#c4c4c4"><path d="m12 0 2.6942 8.2918h8.7185l-7.0534 5.1246 2.6941 8.2918-7.0534-5.1246-7.05342 5.1246 2.69416-8.2918-7.053418-5.1246h8.718508z"/><path d="m43 0 2.6942 8.2918h8.7185l-7.0534 5.1246 2.6941 8.2918-7.0534-5.1246-7.0534 5.1246 2.6941-8.2918-7.0534-5.1246h8.7185z"/><path d="m72 0 2.6942 8.2918h8.7185l-7.0534 5.1246 2.6941 8.2918-7.0534-5.1246-7.0534 5.1246 2.6941-8.2918-7.0534-5.1246h8.7185z"/><path d="m103 0 2.694 8.2918h8.719l-7.054 5.1246 2.694 8.2918-7.053-5.1246-7.0534 5.1246 2.6941-8.2918-7.0534-5.1246h8.7187z"/><path d="m132 0 2.694 8.2918h8.719l-7.054 5.1246 2.694 8.2918-7.053-5.1246-7.053 5.1246 2.694-8.2918-7.054-5.1246h8.719z"/></g></svg>