<svg width="20" height="20" viewBox="0 0 20 20" fill="none" xmlns="http://www.w3.org/2000/svg">
<path fill-rule="evenodd" clip-rule="evenodd" d="M12.1587 6.66602L10.0003 8.82435L7.84199 6.66602L6.66699 7.84102L8.82533 9.99935L6.66699 12.1577L7.84199 13.3327L10.0003 11.1743L12.1587 13.3327L13.3337 12.1577L11.1753 9.99935L13.3337 7.84102L12.1587 6.66602ZM10.0003 1.66602C5.39199 1.66602 1.66699 5.39102 1.66699 9.99935C1.66699 14.6077 5.39199 18.3327 10.0003 18.3327C14.6087 18.3327 18.3337 14.6077 18.3337 9.99935C18.3337 5.39102 14.6087 1.66602 10.0003 1.66602ZM10.0003 16.666C6.32533 16.666 3.33366 13.6743 3.33366 9.99935C3.33366 6.32435 6.32533 3.33268 10.0003 3.33268C13.6753 3.33268 16.667 6.32435 16.667 9.99935C16.667 13.6743 13.6753 16.666 10.0003 16.666Z" fill="#F43F3F"/>
</svg>
