<svg width="20" height="20" viewBox="0 0 20 20" fill="none" xmlns="http://www.w3.org/2000/svg">
<path d="M16.225 6.16289L14.7375 4.67539C14.4083 4.34908 13.9635 4.16601 13.5 4.16602H6.4125C5.95 4.16602 5.50313 4.35039 5.175 4.67539L3.6875 6.16289H0V14.1535H2C2.55 14.1535 2.99375 13.7098 2.99688 13.1629H3.28125L5.925 15.5504C6.89062 16.3348 8.23125 16.3535 9.225 15.6691C9.61563 16.0066 10.0375 16.166 10.5094 16.166C11.0781 16.166 11.6125 15.9348 12.0344 15.416C12.725 15.6879 13.5406 15.4973 14.0344 14.891L14.8531 13.8816C15.0281 13.666 15.1375 13.4191 15.1938 13.1629H17.0031C17.0062 13.7098 17.4531 14.1535 18 14.1535H20V6.16289H16.225ZM1.5 13.1535C1.225 13.1535 1 12.9285 1 12.6535C1 12.3785 1.225 12.1535 1.5 12.1535C1.775 12.1535 2 12.3785 2 12.6535C2 12.9316 1.775 13.1535 1.5 13.1535ZM13.6875 12.9379L12.8719 13.9441C12.7844 14.0504 12.6281 14.0691 12.5188 13.9816L11.7719 13.3754L10.8344 14.516C10.6469 14.7441 10.3656 14.666 10.2719 14.591L9.12187 13.6066L8.63437 14.2066C8.2 14.741 7.40938 14.8223 6.90625 14.4129L3.86562 11.6629H3V7.65977H4.30937L6.2375 5.73477C6.3 5.70977 6.35313 5.68789 6.41563 5.66289H8.1875L6.97813 6.77227C6.05938 7.61289 6.00625 9.03164 6.84062 9.93789C7.30312 10.4441 8.75313 11.2254 10.0125 10.0754L10.2688 9.84102L13.65 12.5848C13.7562 12.6723 13.7719 12.8316 13.6875 12.9379ZM17 11.6629H14.8375C14.7656 11.5754 14.6844 11.4941 14.5969 11.4223L11.3875 8.81602L11.7781 8.45977C11.9812 8.27227 11.9969 7.95664 11.8094 7.75352L11.4688 7.38789C11.2812 7.18477 10.9656 7.17227 10.7625 7.35664L9.0375 8.93789C8.74063 9.20977 8.23438 9.23164 7.95625 8.93789C7.66563 8.62852 7.69063 8.15352 7.99375 7.87852L10.0437 6.00039C10.275 5.78789 10.575 5.67227 10.8875 5.67227L13.5031 5.66602C13.5688 5.66602 13.6313 5.69102 13.675 5.73789L15.6031 7.66289H17V11.6629ZM18.5 13.1535C18.225 13.1535 18 12.9285 18 12.6535C18 12.3785 18.225 12.1535 18.5 12.1535C18.775 12.1535 19 12.3785 19 12.6535C19 12.9316 18.775 13.1535 18.5 13.1535Z" fill="#1ED760"/>
</svg>
