<svg fill="none" height="20" viewBox="0 0 20 20" width="20" xmlns="http://www.w3.org/2000/svg"><path clip-rule="evenodd" d="m16.1917 10.8165c.0333-.2667.0583-.5333.0583-.81666 0-.28334-.025-.55-.0583-.81667l1.7583-1.375c.1583-.125.2-.35.1-.53333l-1.6667-2.88334c-.1-.18333-.325-.25-.5083-.18333l-2.075.83333c-.4333-.33333-.9-.60833-1.4083-.81666l-.3167-2.20834c-.025-.2-.2-.35-.4083-.35h-3.33338c-.20833 0-.38333.15-.40833.35l-.31667 2.20834c-.50833.20833-.975.49166-1.40833.81666l-2.075-.83333c-.19167-.075-.40834 0-.50834.18333l-1.66666 2.88334c-.10834.18333-.05834.40833.1.53333l1.75833 1.375c-.03333.26667-.05833.54167-.05833.81667 0 .27496.025.54996.05833.81666l-1.75833 1.375c-.15834.125-.2.35-.1.5333l1.66666 2.8834c.1.1833.325.25.50834.1833l2.075-.8333c.43333.3333.9.6083 1.40833.8166l.31667 2.2084c.025.2.2.35.40833.35h3.33338c.2083 0 .3833-.15.4083-.35l.3167-2.2084c.5083-.2083.975-.4916 1.4083-.8166l2.075.8333c.1917.075.4083 0 .5083-.1833l1.6667-2.8834c.1-.1833.0583-.4083-.1-.5333zm-6.19171 2.1c-1.60833 0-2.91667-1.3083-2.91667-2.91666 0-1.60834 1.30834-2.91667 2.91667-2.91667 1.60831 0 2.91671 1.30833 2.91671 2.91667 0 1.60836-1.3084 2.91666-2.91671 2.91666z" fill="#98a9bc" fill-rule="evenodd"/></svg>