<svg width="20" height="20" viewBox="0 0 20 20" fill="none" xmlns="http://www.w3.org/2000/svg">
<path fill-rule="evenodd" clip-rule="evenodd" d="M9.99166 1.66663C5.39166 1.66663 1.66666 5.39996 1.66666 9.99996C1.66666 14.6 5.39166 18.3333 9.99166 18.3333C14.6 18.3333 18.3333 14.6 18.3333 9.99996C18.3333 5.39996 14.6 1.66663 9.99166 1.66663ZM9.99999 16.6666C6.31666 16.6666 3.33332 13.6833 3.33332 9.99996C3.33332 6.31663 6.31666 3.33329 9.99999 3.33329C13.6833 3.33329 16.6667 6.31663 16.6667 9.99996C16.6667 13.6833 13.6833 16.6666 9.99999 16.6666Z" fill="#FFC700"/>
<path fill-rule="evenodd" clip-rule="evenodd" d="M10.4167 5.83337H9.16666V10.8334L13.5417 13.4584L14.1667 12.4334L10.4167 10.2084V5.83337Z" fill="#FFC700"/>
</svg>
