<svg width="16" height="16" viewBox="0 0 16 16" fill="none" xmlns="http://www.w3.org/2000/svg">
<path fill-rule="evenodd" clip-rule="evenodd" d="M12 5.33398C12 3.12732 10.2067 1.33398 8.00004 1.33398C5.79337 1.33398 4.00004 3.12732 4.00004 5.33398C4.00004 8.33398 8.00004 12.6673 8.00004 12.6673C8.00004 12.6673 12 8.33398 12 5.33398ZM6.66671 5.33398C6.66671 4.60065 7.26671 4.00065 8.00004 4.00065C8.73337 4.00065 9.33337 4.60065 9.33337 5.33398C9.33337 6.06732 8.74004 6.66732 8.00004 6.66732C7.26671 6.66732 6.66671 6.06732 6.66671 5.33398ZM3.33337 13.334V14.6673H12.6667V13.334H3.33337Z" fill="#98A9BC"/>
</svg>
