<svg width="52" height="52" viewBox="0 0 52 52" fill="none" xmlns="http://www.w3.org/2000/svg">
<path d="M51 26C51 39.8071 39.8071 51 26 51C12.1929 51 1 39.8071 1 26C1 12.1929 12.1929 1 26 1C39.8071 1 51 12.1929 51 26Z" fill="#BFD4E4" stroke="white" stroke-width="2"/>
<path fill-rule="evenodd" clip-rule="evenodd" d="M29.4667 25.1336C30.9053 25.1336 32.058 23.9723 32.058 22.5336C32.058 21.0949 30.9053 19.9336 29.4667 19.9336C28.028 19.9336 26.8667 21.0949 26.8667 22.5336C26.8667 23.9723 28.028 25.1336 29.4667 25.1336ZM22.5333 25.1336C23.972 25.1336 25.1247 23.9723 25.1247 22.5336C25.1247 21.0949 23.972 19.9336 22.5333 19.9336C21.0947 19.9336 19.9333 21.0949 19.9333 22.5336C19.9333 23.9723 21.0947 25.1336 22.5333 25.1336ZM22.5333 26.8668C20.514 26.8668 16.4667 27.8808 16.4667 29.9001V32.0668H28.6V29.9001C28.6 27.8808 24.5527 26.8668 22.5333 26.8668ZM29.4667 26.8668C29.2153 26.8668 28.9293 26.8841 28.626 26.9101C29.6313 27.6381 30.3333 28.6175 30.3333 29.9001V32.0668H35.5333V29.9001C35.5333 27.8808 31.486 26.8668 29.4667 26.8668Z" fill="white"/>
</svg>
