<svg width="16" height="16" viewBox="0 0 16 16" fill="none" xmlns="http://www.w3.org/2000/svg">
<path fill-rule="evenodd" clip-rule="evenodd" d="M11.02 7.37268L10.3133 6.66602L7.05999 9.91935L5.64666 8.50602L4.93999 9.21268L7.05999 11.3327L11.02 7.37268ZM12.6667 1.99935H12V0.666016H10.6667V1.99935H5.33333V0.666016H4V1.99935H3.33333C2.59333 1.99935 2.00667 2.59935 2.00667 3.33268L2 12.666C2 13.3993 2.59333 13.9993 3.33333 13.9993H12.6667C13.4 13.9993 14 13.3993 14 12.666V3.33268C14 2.59935 13.4 1.99935 12.6667 1.99935ZM12.6667 12.666H3.33333V5.33268H12.6667V12.666Z" fill="#98A9BC"/>
</svg>
