<svg width="46" height="46" viewBox="0 0 46 46" fill="none" xmlns="http://www.w3.org/2000/svg">
<rect x="3.23438" y="3.23438" width="39.5312" height="39.5312" rx="6" fill="#FFC700"/>
<path fill-rule="evenodd" clip-rule="evenodd" d="M20.3745 9.68239C20.873 9.68239 21.3308 9.86222 21.6628 10.1888C21.9847 10.5052 22.1619 10.9359 22.1619 11.4016C22.1616 12.3833 21.3804 13.1535 20.3861 13.1549H20.3802C19.8935 13.1549 19.4432 12.974 19.1123 12.6456C18.7865 12.3225 18.6072 11.8853 18.6072 11.4149C18.6072 10.4112 19.3503 9.6825 20.3745 9.68239ZM20.3802 15.1457H20.3861C22.4785 15.1427 24.1479 13.4814 24.1483 11.4019C24.1487 9.32439 22.4878 7.69132 20.3745 7.69155H20.3738C18.2551 7.69187 16.6207 9.31339 16.6207 11.4149C16.6207 13.495 18.2847 15.1457 20.3802 15.1457Z" fill="#0D9372"/>
<path fill-rule="evenodd" clip-rule="evenodd" d="M16.422 30.8328C16.4 30.7852 16.3796 30.7375 16.3602 30.6895L16.0649 30.0502L9.82863 44.1637C9.52452 44.7999 9.79199 45.5635 10.4266 45.8714C11.016 46.1574 11.7251 45.9523 12.0703 45.396L19.963 32.5574C18.5531 32.894 17.054 32.2023 16.422 30.8328Z" fill="#0D9372"/>
<path d="M10.8545 15.8922C10.8674 15.8879 10.8802 15.8836 10.8931 15.8793C10.9503 16.0316 11.0868 16.2714 11.4112 16.5164L17.2897 20.3831L17.2922 28.5066C17.2902 28.5484 17.2891 28.5903 17.2891 28.6326C17.2891 29.9017 18.229 30.9503 19.4492 31.1187C19.4485 31.1197 19.4481 31.1208 19.4473 31.1217L26.4142 31.9802L28.0689 40.0858C28.1994 40.7155 28.7635 41.1808 29.404 41.14C30.1408 41.093 30.6698 40.4502 30.6019 39.7381L29.3546 28.8371C29.3465 28.831 29.3227 28.824 29.2853 28.8161C29.265 28.8003 29.2415 28.7881 29.2155 28.7808L23.4151 27.1377C23.3267 27.1128 23.2657 27.0319 23.2657 26.94V20.0604L35.4137 18.4888C35.8896 18.4257 36.2328 18.0005 36.1952 17.5209C36.1584 17.0528 35.7703 16.6906 35.3018 16.6875L21.8006 16.6262C21.7625 16.6232 21.7241 16.6216 21.6854 16.6216H20.7722L20.7698 16.6216C20.7674 16.6216 20.7651 16.6216 20.7627 16.6216H18.8693C18.6965 16.6216 18.5298 16.6529 18.3738 16.7107L13.4688 14.3353L12.1061 7.90371C11.9947 7.38676 11.5007 7.043 10.9817 7.12144C10.4752 7.19795 10.1157 7.65151 10.1542 8.16562L10.7339 15.6599C10.7808 15.7335 10.8197 15.8119 10.8545 15.8922Z" fill="#0D9372"/>
<path fill-rule="evenodd" clip-rule="evenodd" d="M14.2777 0H14.2781C15.0488 0 15.7562 0.284624 16.2697 0.801473C16.7674 1.30231 17.0412 1.98401 17.0412 2.72107C17.0409 4.27493 15.8329 5.49403 14.2956 5.49611H14.2866C13.534 5.49611 12.8378 5.20992 12.3262 4.69011C11.8224 4.17866 11.5451 3.48669 11.5451 2.74214C11.5451 1.15347 12.6941 0.000174082 14.2777 0Z" fill="#0D9372"/>
</svg>
