<svg width="20" height="20" viewBox="0 0 20 20" fill="none" xmlns="http://www.w3.org/2000/svg">
<path fill-rule="evenodd" clip-rule="evenodd" d="M7.49984 10.8332C9.34079 10.8332 10.8332 9.34079 10.8332 7.49984C10.8332 5.65889 9.34079 4.1665 7.49984 4.1665C5.65889 4.1665 4.1665 5.65889 4.1665 7.49984C4.1665 9.34079 5.65889 10.8332 7.49984 10.8332Z" fill="#98A9BC"/>
<path fill-rule="evenodd" clip-rule="evenodd" d="M7.50016 12.4998C5.27516 12.4998 0.833496 13.6165 0.833496 15.8332V17.4998H14.1668V15.8332C14.1668 13.6165 9.72516 12.4998 7.50016 12.4998ZM13.9668 4.4665L12.5668 5.87484C13.2668 6.85817 13.2668 8.13317 12.5668 9.1165L13.9668 10.5248C15.6502 8.8415 15.6502 6.29984 13.9668 4.4665ZM16.7252 1.6665L15.3668 3.02484C17.6752 5.5415 17.6752 9.32484 15.3668 11.9748L16.7252 13.3332C19.9752 10.0915 19.9835 5.0415 16.7252 1.6665Z" fill="#98A9BC"/>
</svg>
