<svg width="20" height="20" viewBox="0 0 20 20" fill="none" xmlns="http://www.w3.org/2000/svg">
<path fill-rule="evenodd" clip-rule="evenodd" d="M15.8915 4.10817L14.7165 5.28317C15.9165 6.4915 16.6665 8.15817 16.6665 9.99984C16.6665 13.6832 13.6832 16.6665 9.99984 16.6665C6.3165 16.6665 3.33317 13.6832 3.33317 9.99984C3.33317 6.59984 5.87484 3.79984 9.1665 3.3915V5.07484C6.79984 5.47484 4.99984 7.52484 4.99984 9.99984C4.99984 12.7582 7.2415 14.9998 9.99984 14.9998C12.7582 14.9998 14.9998 12.7582 14.9998 9.99984C14.9998 8.6165 14.4415 7.3665 13.5332 6.4665L12.3582 7.6415C12.9582 8.24984 13.3332 9.08317 13.3332 9.99984C13.3332 11.8415 11.8415 13.3332 9.99984 13.3332C8.15817 13.3332 6.6665 11.8415 6.6665 9.99984C6.6665 8.44984 7.73317 7.15817 9.1665 6.78317V8.5665C8.6665 8.85817 8.33317 9.38317 8.33317 9.99984C8.33317 10.9165 9.08317 11.6665 9.99984 11.6665C10.9165 11.6665 11.6665 10.9165 11.6665 9.99984C11.6665 9.38317 11.3332 8.84984 10.8332 8.5665V1.6665H9.99984C5.39984 1.6665 1.6665 5.39984 1.6665 9.99984C1.6665 14.5998 5.39984 18.3332 9.99984 18.3332C14.5998 18.3332 18.3332 14.5998 18.3332 9.99984C18.3332 7.69984 17.3998 5.6165 15.8915 4.10817V4.10817Z" fill="#98A9BC"/>
</svg>
