<svg width="40" height="40" viewBox="0 0 40 40" fill="none" xmlns="http://www.w3.org/2000/svg">
<path d="M20 40C9 40 0 31 0 20C0 9 9 0 20 0C31 0 40 9 40 20C40 31 31 40 20 40ZM20 1.08333C9.58333 1.08333 1.08333 9.58333 1.08333 20C1.08333 30.4167 9.58333 39 20 39C30.4167 39 39 30.4167 39 20C39 9.58333 30.4167 1.08333 20 1.08333Z" fill="#98A9BC"/>
<path d="M20 39.5C30.7696 39.5 39.5 30.7695 39.5 20C39.5 9.23045 30.7696 0.5 20 0.5C9.23045 0.5 0.5 9.23045 0.5 20C0.5 30.7695 9.23045 39.5 20 39.5Z" fill="#E8ECEF"/>
<path d="M20 40C9 40 0 31 0 20C0 9 9 0 20 0C31 0 40 9 40 20C40 31 31 40 20 40ZM20 1.08333C9.58333 1.08333 1.08333 9.58333 1.08333 20C1.08333 30.4167 9.58333 39 20 39C30.4167 39 39 30.4167 39 20C39 9.58333 30.4167 1.08333 20 1.08333Z" fill="white"/>
<path d="M10.1667 10.9167L9.41675 10.1667C9.58341 10 9.66675 9.91667 9.83341 9.75C15.4167 4.16667 24.2501 1.83334 31.9167 3.91667L31.6667 5C24.4167 3.08334 15.9167 5.25 10.5834 10.5833C10.4167 10.6667 10.3334 10.8333 10.1667 10.9167Z" fill="white"/>
<path d="M14.5835 16.5834L13.8335 15.8334C20.5002 9.1667 30.3335 7.1667 37.6668 10.8334L37.1668 11.75C30.1668 8.25004 20.9168 10.25 14.5835 16.5834Z" fill="white"/>
<path d="M20.3334 20.4165L19.6667 19.5832C25.3334 15.1665 32.9167 14.0832 39.5001 16.7499L39.0834 17.7499C32.8334 15.1665 25.6667 16.2499 20.3334 20.4165Z" fill="white"/>
<path d="M16.8334 34C16.6667 33.9167 16.5001 33.9167 16.2501 33.8333C8.66675 31.8333 2.25008 25.3333 0.166748 17.75L1.16675 17.5C3.08341 24.75 9.33341 31 16.5834 32.9167C16.7501 33 16.9167 33 17.0834 33.0833L16.8334 34Z" fill="white"/>
<path d="M19.5 27.4165C10.4167 24.9998 3.75 17.4998 3.25 9.24984L4.25 9.1665C4.66667 16.9998 11.0833 24.0832 19.75 26.4165L19.5 27.4165Z" fill="white"/>
<path d="M19.8333 20.4999C13.1667 17.8333 8.41667 11.8333 7.5 4.74992L8.5 4.58325C9.41667 11.2499 13.9167 16.9166 20.25 19.4999L19.8333 20.4999Z" fill="white"/>
<path d="M27.9167 38.3333L27.1667 37.5833C32.5001 32.25 34.7501 23.8333 32.8334 16.5833C32.7501 16.4167 32.7501 16.25 32.6668 16.0833L33.6668 15.75C33.7501 15.9167 33.7501 16.0833 33.8334 16.3333C35.9167 23.8333 33.5001 32.75 27.9167 38.3333Z" fill="white"/>
<path d="M19.0833 39.9166L18.5 39.0833C25.0833 34.7499 28 25.7499 25.6667 17.0833L26.6667 16.8333C29.1667 25.8333 26 35.3333 19.0833 39.9166Z" fill="white"/>
<path d="M13.0834 38.5001L12.4167 37.6667C17.7501 33.5834 20.4167 26.8334 19.4167 20.0834L20.4167 19.9167C21.5001 27.0001 18.6667 34.1667 13.0834 38.5001Z" fill="white"/>
</svg>
