<svg width="41" height="35" viewBox="0 0 41 35" fill="none" xmlns="http://www.w3.org/2000/svg">
<path fill-rule="evenodd" clip-rule="evenodd" d="M36.4269 18.3205L23.9749 9.0245C22.6079 7.6585 20.3929 7.6585 19.0259 9.0245L11.0259 17.0245C10.4699 17.5805 10.1519 18.2785 10.0479 19.0005C10.0209 19.0005 9.99992 19.0005 9.99992 19.0005L8.74992 26.9825L3.99192 24.2635C3.03392 23.7155 1.81192 24.0485 1.26292 25.0075C0.714915 25.9665 1.04792 27.1885 2.00692 27.7365L9.00692 31.7365C9.31291 31.9115 9.65592 32.0005 9.99992 32.0005C10.2599 32.0005 10.5199 31.9495 10.7659 31.8485C11.3369 31.6125 11.7669 31.1235 11.9299 30.5275L14.3129 23.1335L20.2439 25.6375L16.3039 31.9425C15.7189 32.8795 16.0029 34.1125 16.9409 34.6985C17.2699 34.9025 17.6359 35.0005 17.9979 35.0005C18.6649 35.0005 19.3159 34.6675 19.6959 34.0605L24.6959 26.0605C25.2809 25.1235 24.9969 23.8905 24.0589 23.3045L18.2649 19.6835L23.9739 13.9755L30.1669 17.4305L34.5719 20.6805C34.8459 20.8965 35.1739 21.0005 35.4979 21.0005C35.9419 21.0005 36.3829 20.8045 36.6789 20.4275C37.1909 19.7755 37.0779 18.8335 36.4269 18.3205Z" fill="white"/>
<path fill-rule="evenodd" clip-rule="evenodd" d="M37.5 10C39.433 10 41 11.566 41 13.5C41 15.434 39.433 17 37.5 17C35.566 17 34 15.434 34 13.5C34 11.566 35.566 10 37.5 10Z" fill="#FFC700"/>
<path fill-rule="evenodd" clip-rule="evenodd" d="M28 3.5C28 5.433 26.433 7 24.5 7C22.568 7 21 5.433 21 3.5C21 1.567 22.568 0 24.5 0C26.433 0 28 1.567 28 3.5Z" fill="white"/>
<path fill-rule="evenodd" clip-rule="evenodd" d="M13.0249 15.0254L11.0249 17.0254C10.4699 17.5804 10.1519 18.2784 10.0479 19.0004C10.5259 19.0014 14.9999 19.0654 14.9999 21.0004L14.3979 22.8684C14.9739 22.7154 15.5219 22.4274 15.9749 21.9754L17.9749 19.9754L13.0249 15.0254Z" fill="#32C5FF"/>
<path fill-rule="evenodd" clip-rule="evenodd" d="M22.573 9.6795C23.125 8.7915 23.974 9.0245 23.974 9.0245C22.607 7.6585 20.392 7.6585 19.025 9.0245L13 15.0495L17.95 19.9995L23.975 13.9745C23.323 13.4625 21 12.1245 22.573 9.6795Z" fill="#E8ECEF"/>
</svg>
